<svg id="icons" xmlns="http://www.w3.org/2000/svg" viewBox="0 0 48 48"><title>color-swatches</title><g id="color-swatches"><polygon points="27.4 27.38 43.92 27.38 43.92 39.87 39.83 43.9 27.4 43.9 27.4 27.38" fill="#fff"/><path d="M45,44.51a.52.52,0,0,1-.52.52.52.52,0,0,1-.53-.52.53.53,0,0,1,.53-.53A.52.52,0,0,1,45,44.51Z" fill="#252b33"/><polygon points="3 27.38 19.52 27.38 19.52 39.87 15.42 43.9 3 43.9 3 27.38" fill="#6d7c8c"/><path d="M20.59,44.51a.52.52,0,1,1-1,0,.52.52,0,1,1,1,0Z" fill="#252b33"/><polygon points="27.4 2.97 43.92 2.97 43.92 15.46 39.83 19.49 27.4 19.49 27.4 2.97" fill="#b1bfc9"/><path d="M45,20.1a.52.52,0,0,1-.52.52.52.52,0,1,1,0-1A.52.52,0,0,1,45,20.1Z" fill="#252b33"/><polygon points="3 2.97 19.52 2.97 19.52 15.46 15.42 19.49 3 19.49 3 2.97" fill="#fc3768"/><path d="M20.59,20.1a.52.52,0,1,1-.52-.52A.52.52,0,0,1,20.59,20.1Z" fill="none"/><path d="M39.83,44.9H27.4a1,1,0,0,1-1-1V27.38a1,1,0,0,1,1-1H43.92a1,1,0,0,1,1,1V39.87a1,1,0,0,1-.29.71l-4.1,4A1,1,0,0,1,39.83,44.9Zm-11.43-2h11l3.5-3.45V28.38H28.4Z" fill="#252b33"/><path d="M44.48,46A1.53,1.53,0,1,1,46,44.51,1.53,1.53,0,0,1,44.48,46Zm0-2a.48.48,0,1,0,.47.48A.47.47,0,0,0,44.48,44Z" fill="#252b33"/><path d="M15.42,44.9H3a1,1,0,0,1-1-1V27.38a1,1,0,0,1,1-1H19.52a1,1,0,0,1,1,1V39.87a1,1,0,0,1-.3.71l-4.1,4A1,1,0,0,1,15.42,44.9ZM4,42.9H15l3.51-3.45V28.38H4Z" fill="#252b33"/><path d="M20.07,46a1.53,1.53,0,1,1,1.52-1.52A1.52,1.52,0,0,1,20.07,46Zm0-2a.48.48,0,1,0,.48.48A.48.48,0,0,0,20.07,44Z" fill="#252b33"/><path d="M39.83,20.49H27.4a1,1,0,0,1-1-1V3a1,1,0,0,1,1-1H43.92a1,1,0,0,1,1,1V15.46a1,1,0,0,1-.29.72l-4.1,4A1,1,0,0,1,39.83,20.49Zm-11.43-2h11l3.5-3.44V4H28.4Z" fill="#252b33"/><path d="M44.48,21.62A1.52,1.52,0,1,1,46,20.1,1.53,1.53,0,0,1,44.48,21.62Zm0-2a.48.48,0,1,0,.47.48A.48.48,0,0,0,44.48,19.62Z" fill="#252b33"/><path d="M15.42,20.49H3a1,1,0,0,1-1-1V3A1,1,0,0,1,3,2H19.52a1,1,0,0,1,1,1V15.46a1,1,0,0,1-.3.72l-4.1,4A1,1,0,0,1,15.42,20.49ZM4,18.49H15l3.51-3.44V4H4Z" fill="#252b33"/><path d="M20.59,20.1a.52.52,0,1,1-.52-.52A.52.52,0,0,1,20.59,20.1Z" fill="#252b33"/><path d="M20.07,21.62a1.52,1.52,0,1,1,1.52-1.52A1.52,1.52,0,0,1,20.07,21.62Zm0-2a.48.48,0,1,0,.48.48A.49.49,0,0,0,20.07,19.62Z" fill="#252b33"/></g></svg>